<?xml version="1.0" encoding="utf-8"?>
<!-- Generator: Adobe Illustrator 27.1.1, SVG Export Plug-In . SVG Version: 6.00 Build 0)  -->
<svg version="1.1" id="圖層_1" xmlns="http://www.w3.org/2000/svg" xmlns:xlink="http://www.w3.org/1999/xlink" x="0px" y="0px"
	 viewBox="0 0 521.1 100" style="enable-background:new 0 0 521.1 100;" xml:space="preserve">
<style type="text/css">
	.st0{fill:#FFFFFF;}
</style>
<g>
	<path class="st0" d="M150,0l-39.2,100h33.3l4.7-13.2h37.6l4.7,13.2h33.3L185.3,0H150z M156.5,62.7l11.2-31.2l11.2,31.2H156.5z"/>
	<polygon class="st0" points="363.2,62 408.8,62 408.8,38 363.2,38 363.2,24.5 409.3,24.5 409.3,0 331.4,0 331.4,100 410.3,100 
		410.3,75.5 363.2,75.5 	"/>
	<polygon class="st0" points="264.2,65.8 240.7,0 207.4,0 246.6,100 281.9,100 321.1,0 287.7,0 	"/>
	<polygon class="st0" points="68.1,53.5 30.9,0 0,0 0,100 32.4,100 32.4,46.5 69.6,100 100.5,100 100.5,0 68.1,0 	"/>
	<path class="st0" d="M495.8,65.7l3-1.3c11.6-4.9,17.5-15.4,17.5-28.7c0-12.6-4.6-22-13.7-27.8C494.2,2.5,483.3,0,468.2,0H426v100
		h31.4V72.1h11.3l19.1,27.9h33.3L495.8,65.7z M474,46.6h-17.2V25.5H474c5.8,0,10.5,4.7,10.5,10.5C484.6,41.9,479.8,46.6,474,46.6z"
		/>
</g>
</svg>
